<svg xmlns="http://www.w3.org/2000/svg" viewBox="0 0 512 512" role="img" aria-label="Love Piment">
  <defs>
    <linearGradient id="bg" x1="0" y1="0" x2="512" y2="512" gradientUnits="userSpaceOnUse">
      <stop offset="0" stop-color="#C42440"/>
      <stop offset="1" stop-color="#5C0F1A"/>
    </linearGradient>
    <linearGradient id="pepper" x1="256" y1="140" x2="256" y2="340" gradientUnits="userSpaceOnUse">
      <stop offset="0" stop-color="#FF5C96"/>
      <stop offset="1" stop-color="#B91F35"/>
    </linearGradient>
  </defs>
  <rect width="512" height="512" fill="url(#bg)"/>
  <g transform="translate(256 250) scale(0.82) translate(-256 -250)">
    <path d="M256 118c8 0 14 6 14 14 0 6-4 12-10 14 14 5 24 20 24 36 0 22-18 40-40 40s-40-18-40-40c0-16 10-31 24-36-6-2-10-8-10-14 0-8 6-14 14-14 5 0 9 2 12 6 3-4 7-6 12-6z" fill="#3FA84F"/>
    <path d="M256 170c52 0 90 38 90 90 0 36-22 68-54 82-6 14-22 24-38 24h-4c-16 0-32-10-38-24-32-14-54-46-54-82 0-52 38-90 90-90 15 0 28 4 40 12 12-8 25-12 40-12 8 0 14 6 14 14s-6 14-14 14c-10 0-18-3-26-8-8 5-16 8-26 8z" fill="url(#pepper)"/>
    <ellipse cx="234" cy="232" rx="28" ry="42" fill="#FFFFFF" opacity="0.28"/>
    <ellipse cx="256" cy="308" rx="18" ry="11" fill="#FFF5F2" opacity="0.9"/>
    <text x="256" y="392" text-anchor="middle" font-family="Georgia, serif" font-size="54" font-weight="700" letter-spacing="3" fill="#FFF8F6">LP</text>
  </g>
</svg>
