<svg xmlns="http://www.w3.org/2000/svg" viewBox="0 0 512 512" role="img" aria-label="Love Piment">
  <defs>
    <linearGradient id="bg" x1="64" y1="48" x2="448" y2="464" gradientUnits="userSpaceOnUse">
      <stop offset="0" stop-color="#D42B45"/>
      <stop offset="0.55" stop-color="#9B1B2E"/>
      <stop offset="1" stop-color="#4A0814"/>
    </linearGradient>
    <linearGradient id="pepper" x1="256" y1="108" x2="256" y2="360" gradientUnits="userSpaceOnUse">
      <stop offset="0" stop-color="#FF6B9D"/>
      <stop offset="0.45" stop-color="#E91E8C"/>
      <stop offset="1" stop-color="#B91F35"/>
    </linearGradient>
    <linearGradient id="stem" x1="256" y1="92" x2="256" y2="148" gradientUnits="userSpaceOnUse">
      <stop offset="0" stop-color="#7DD87A"/>
      <stop offset="1" stop-color="#2E8B3E"/>
    </linearGradient>
    <radialGradient id="shine" cx="0" cy="0" r="1" gradientUnits="userSpaceOnUse" gradientTransform="translate(210 190) rotate(25) scale(180 140)">
      <stop offset="0" stop-color="#FFFFFF" stop-opacity="0.42"/>
      <stop offset="1" stop-color="#FFFFFF" stop-opacity="0"/>
    </radialGradient>
    <filter id="softShadow" x="-20%" y="-20%" width="140%" height="140%">
      <feDropShadow dx="0" dy="10" stdDeviation="14" flood-color="#24040A" flood-opacity="0.45"/>
    </filter>
  </defs>

  <rect width="512" height="512" rx="112" fill="url(#bg)"/>
  <circle cx="256" cy="256" r="188" fill="#FFFFFF" opacity="0.05"/>
  <circle cx="168" cy="148" r="72" fill="#FFFFFF" opacity="0.06"/>

  <g filter="url(#softShadow)">
    <path
      d="M256 104c10 0 18 8 18 18 0 8-5 15-12 17 18 6 30 24 30 44 0 28-22 50-50 50s-50-22-50-50c0-20 12-38 30-44-7-2-12-9-12-17 0-10 8-18 18-18 6 0 11 3 14 8 3-5 8-8 14-8z"
      fill="url(#stem)"
    />
    <path
      d="M256 168c62 0 108 46 108 108 0 44-26 82-64 98-8 18-26 30-46 30h-4c-20 0-38-12-46-30-38-16-64-54-64-98 0-62 46-108 108-108 18 0 34 5 48 14 14-9 30-14 48-14 10 0 18 8 18 18 0 10-8 18-18 18-12 0-22-4-30-10-8 6-18 10-30 10z"
      fill="url(#pepper)"
    />
    <ellipse cx="228" cy="238" rx="34" ry="52" fill="url(#shine)"/>
    <path
      d="M318 250c18 10 28 28 28 48 0 34-28 62-62 62-10 0-19-2-28-6 14-22 22-48 22-76 0-10-1-20-4-28 10 0 20 0 24 0z"
      fill="#FF8CB8"
      opacity="0.55"
    />
    <ellipse cx="256" cy="332" rx="22" ry="14" fill="#FFF5F2" opacity="0.92"/>
  </g>

  <text
    x="256"
    y="438"
    text-anchor="middle"
    font-family="Georgia, 'Times New Roman', serif"
    font-size="64"
    font-weight="700"
    letter-spacing="4"
    fill="#FFF8F6"
  >LP</text>
</svg>
